<svg width="16" height="17" viewBox="0 0 16 17" fill="none" xmlns="http://www.w3.org/2000/svg">
<path d="M9.33102 4.89977L5.50202 8.65377C5.13802 9.01377 4.93802 9.50577 4.94602 10.0228C4.95693 10.5458 5.17232 11.0437 5.54602 11.4098C5.92102 11.7808 6.42602 11.9938 6.94902 12.0028C7.20505 12.0082 7.45956 11.9623 7.69759 11.8678C7.93562 11.7734 8.15235 11.6322 8.33502 11.4528L12.163 7.69877C12.5242 7.3415 12.8089 6.91458 13.0001 6.44392C13.1913 5.97326 13.2848 5.46867 13.275 4.96077C13.254 3.91468 12.8239 2.91848 12.077 2.18577C11.3281 1.44462 10.3225 1.02027 9.26902 1.00077C8.75751 0.990558 8.2491 1.0824 7.77349 1.27093C7.29788 1.45945 6.86462 1.74088 6.49902 2.09877L2.66802 5.85377C2.12672 6.38992 1.69988 7.03037 1.41334 7.73632C1.1268 8.44226 0.986531 9.19902 1.00102 9.96077C1.03322 11.5295 1.67866 13.0232 2.79902 14.1218C3.92188 15.2332 5.4294 15.8699 7.00902 15.8998C7.77658 15.9158 8.53962 15.7784 9.25343 15.4958C9.96724 15.2131 10.6175 14.7909 11.166 14.2538L14.995 10.4978" stroke="white" stroke-linecap="round" stroke-linejoin="round"/>
</svg>
