<svg width="61" height="62" viewBox="0 0 61 62" fill="none" xmlns="http://www.w3.org/2000/svg">
<path d="M17.3684 39.8947H6.21053C5.09383 39.8947 4.02286 39.4511 3.23323 38.6615C2.44361 37.8719 2 36.8009 2 35.6842V6.21053C2 5.09383 2.44361 4.02286 3.23323 3.23323C4.02286 2.44361 5.09383 2 6.21053 2H35.6842C36.8009 2 37.8719 2.44361 38.6615 3.23323C39.4511 4.02286 39.8947 5.09383 39.8947 6.21053V27.2632L33.3684 20.7368C32.5762 19.9604 31.5095 19.5279 30.4003 19.5334C29.291 19.539 28.2287 19.982 27.4442 20.7663L8.31579 39.8947" stroke="#E5E5E5" stroke-width="3" stroke-linecap="round" stroke-linejoin="round"/>
<path d="M14.6317 18.842C16.9571 18.842 18.8422 16.9568 18.8422 14.6314C18.8422 12.306 16.9571 10.4209 14.6317 10.4209C12.3063 10.4209 10.4211 12.306 10.4211 14.6314C10.4211 16.9568 12.3063 18.842 14.6317 18.842Z" stroke="#E5E5E5" stroke-width="3" stroke-linecap="round" stroke-linejoin="round"/>
<path d="M27.25 30C25.5924 30 24.0027 30.6585 22.8306 31.8306C21.6585 33.0027 21 34.5924 21 36.25V55.75C21 57.4076 21.6585 58.9973 22.8306 60.1694C24.0027 61.3415 25.5924 62 27.25 62H54.75C56.4076 62 57.9973 61.3415 59.1694 60.1694C60.3415 58.9973 61 57.4076 61 55.75V36.25C61 34.5924 60.3415 33.0027 59.1694 31.8306C57.9973 30.6585 56.4076 30 54.75 30H27.25ZM35 40C35 39.7398 35.0677 39.4841 35.1964 39.258C35.3251 39.0318 35.5104 38.8431 35.7342 38.7102C35.9579 38.5774 36.2123 38.505 36.4725 38.5002C36.7326 38.4955 36.9895 38.5585 37.218 38.683L48.218 44.683C48.4546 44.812 48.6522 45.0024 48.7898 45.2342C48.9274 45.4659 49 45.7305 49 46C49 46.2695 48.9274 46.5341 48.7898 46.7658C48.6522 46.9976 48.4546 47.188 48.218 47.317L37.218 53.317C36.9895 53.4415 36.7326 53.5045 36.4725 53.4998C36.2123 53.495 35.9579 53.4226 35.7342 53.2898C35.5104 53.1569 35.3251 52.9682 35.1964 52.742C35.0677 52.5159 35 52.2602 35 52V40Z" fill="#E5E5E5"/>
</svg>
