<svg width="45" height="45" viewBox="0 0 45 45" fill="none" xmlns="http://www.w3.org/2000/svg">
<path d="M15.4517 1.2337C10.8095 2.81182 6.80604 5.80715 4.02942 9.77971C1.2528 13.7523 -0.150645 18.4927 0.0252217 23.3046C0.201089 28.1166 1.947 32.7465 5.00651 36.5142C8.06602 40.2819 12.2779 42.9889 17.0234 44.2376C20.8707 45.2104 24.9015 45.2531 28.7694 44.3621C32.2733 43.5908 35.5127 41.9411 38.1705 39.5744C40.9367 37.0359 42.9446 33.8067 43.9782 30.2338C45.1017 26.3484 45.3016 22.2623 44.5626 18.2894H22.9581V27.0716H35.47C35.2199 28.4723 34.6841 29.8092 33.8945 31.0022C33.1049 32.1952 32.0778 33.2199 30.8747 34.0148C29.3468 35.0052 27.6245 35.6716 25.8184 35.9712C24.0069 36.3012 22.1488 36.3012 20.3374 35.9712C18.5014 35.5992 16.7646 34.8566 15.2375 33.7907C12.7843 32.089 10.9423 29.6715 9.97433 26.8831C8.98998 24.0425 8.98998 20.9629 9.97433 18.1222C10.6634 16.1311 11.8024 14.3182 13.3065 12.8188C15.0277 11.0714 17.2068 9.82238 19.6047 9.20872C22.0027 8.59507 24.5267 8.64051 26.9 9.34006C28.754 9.89777 30.4494 10.8722 31.8511 12.1856C33.2619 10.8103 34.6702 9.43136 36.0762 8.04888C36.8021 7.30547 37.5934 6.59763 38.3085 5.83644C36.1689 3.88535 33.6576 2.36716 30.9182 1.36887C25.9298 -0.4061 20.4716 -0.453801 15.4517 1.2337Z" fill="white"/>
<path d="M15.4518 1.23348C20.4713 -0.455172 25.9295 -0.408727 30.9184 1.36509C33.6582 2.37016 36.1684 3.89566 38.305 5.854C37.579 6.61519 36.8132 7.32659 36.0727 8.06644C34.6643 9.44417 33.2572 10.8172 31.8512 12.1854C30.4496 10.872 28.7542 9.89754 26.9002 9.33984C24.5277 8.63783 22.0037 8.58977 19.6051 9.20091C17.2065 9.81205 15.0261 11.0588 13.303 12.8043C11.7989 14.3037 10.6599 16.1167 9.97085 18.1078L2.44629 12.3988C5.13962 7.16496 9.80297 3.16145 15.4518 1.23348Z" fill="#E33629"/>
<path d="M0.450084 18.054C0.85452 16.0898 1.52597 14.1877 2.44647 12.3984L9.97103 18.1216C8.98668 20.9622 8.98668 24.0418 9.97103 26.8825C7.46405 28.7795 4.95586 30.6861 2.44647 32.6021C0.142098 28.1072 -0.560695 22.9858 0.450084 18.054Z" fill="#F8BD00"/>
<path d="M22.9582 18.2852H44.5627C45.3017 22.2581 45.1018 26.3441 43.9783 30.2295C42.9446 33.8024 40.9368 37.0317 38.1706 39.5701C35.7423 37.7134 33.3031 35.8709 30.8747 34.0141C32.0786 33.2184 33.1062 32.1926 33.8958 30.9983C34.6855 29.804 35.2209 28.4657 35.47 27.0638H22.9582C22.9545 24.1399 22.9582 21.2126 22.9582 18.2852Z" fill="#587DBD"/>
<path d="M2.44263 32.6024C4.95202 30.7054 7.46021 28.7988 9.96718 26.8828C10.9371 29.6722 12.7817 32.0899 15.2376 33.7905C16.7694 34.8514 18.51 35.5879 20.3484 35.9531C22.1599 36.2832 24.0179 36.2832 25.8294 35.9531C27.6355 35.6535 29.3578 34.9871 30.8857 33.9968C33.314 35.8535 35.7532 37.696 38.1816 39.5528C35.5242 41.9208 32.2847 43.5717 28.7804 44.344C24.9125 45.2351 20.8817 45.1924 17.0344 44.2195C13.9915 43.4234 11.1493 42.0199 8.68587 40.097C6.07845 38.0684 3.94883 35.5119 2.44263 32.6024Z" fill="#319F43"/>
</svg>
