<svg width="15" height="15" viewBox="0 0 15 15" fill="none" xmlns="http://www.w3.org/2000/svg">
<path fill-rule="evenodd" clip-rule="evenodd" d="M7.49946 1.38891C9.1149 1.38891 10.6937 1.47446 12.2047 1.63335C12.4918 1.65959 12.762 1.78097 12.9723 1.97823C13.1827 2.17549 13.3211 2.43735 13.3657 2.72226C13.6866 4.9684 13.6903 7.24849 13.3768 9.49567C13.2902 10.1135 12.7591 10.6068 12.0736 10.6701L11.838 10.6924L11.1003 10.7612C10.9277 10.7768 10.7672 10.8563 10.6502 10.9842C10.5332 11.112 10.4683 11.279 10.4681 11.4524V13.1824C9.59153 12.6879 8.94491 12.1257 8.13831 11.1979C8.07261 11.1229 7.99164 11.0627 7.90081 11.0215C7.80999 10.9803 7.71141 10.959 7.61168 10.959H7.49946C5.90735 10.959 4.36302 10.8635 2.86091 10.7112C2.55788 10.683 2.2731 10.5538 2.05213 10.3445C1.83116 10.1352 1.68679 9.85786 1.6421 9.55678C1.48656 8.45566 1.38879 7.32787 1.38879 6.17341C1.38879 5.00673 1.47767 3.85894 1.63655 2.75448C1.68088 2.46181 1.82212 2.19248 2.03765 1.98962C2.25319 1.78676 2.53056 1.66209 2.82535 1.63558C4.37813 1.4733 5.93823 1.39097 7.49946 1.38891ZM12.3491 0.252226C10.738 0.0840269 9.11929 -0.000162152 7.49946 2.34459e-07C5.83847 2.34459e-07 4.2397 0.0933347 2.68203 0.255559C2.07922 0.313877 1.5133 0.572386 1.07452 0.989857C0.635736 1.40733 0.34937 1.95971 0.261092 2.55892C0.0944374 3.72338 -5.96046e-08 4.93673 -5.96046e-08 6.17452C-5.96046e-08 7.40787 0.104437 8.60122 0.266647 9.75234C0.354972 10.3609 0.644758 10.9222 1.08967 11.3466C1.53459 11.771 2.10895 12.034 2.72092 12.0935C4.19859 12.2435 5.72515 12.3424 7.30281 12.349C8.41384 13.5824 9.35044 14.2524 10.8792 14.9391C10.985 14.9865 11.1009 15.0068 11.2165 14.998C11.332 14.9892 11.4435 14.9516 11.5408 14.8886C11.6382 14.8256 11.7182 14.7393 11.7736 14.6375C11.829 14.5357 11.858 14.4216 11.858 14.3057V12.0868L11.9691 12.0757L12.2036 12.0546C13.4657 11.9368 14.569 11.0068 14.7523 9.6879C15.0863 7.31188 15.0825 4.90056 14.7412 2.52559C14.6527 1.93431 14.3693 1.38952 13.9359 0.977669C13.5026 0.565819 12.9441 0.3105 12.3491 0.252226Z" fill="#969696"/>
<path d="M7.34659 4.06109C7.43853 4.03682 7.53461 4.0326 7.62833 4.04873C7.75257 4.07703 7.86521 4.13979 7.95541 4.2298C8.04561 4.31981 8.10861 4.43343 8.13718 4.55762C8.16051 4.67763 8.14162 4.73429 8.12162 4.77207C8.09496 4.82541 8.0283 4.9143 7.86164 5.02541C7.61277 5.19097 7.32835 5.38319 7.11503 5.60542C6.8706 5.85986 6.6684 6.20431 6.6684 6.65987C6.66821 6.8735 6.75007 7.07904 6.89706 7.23405C7.04406 7.38905 7.24496 7.48168 7.45828 7.4928C7.6716 7.50393 7.88105 7.4327 8.04336 7.29382C8.20568 7.15494 8.30847 6.95903 8.3305 6.74654C8.37455 6.7034 8.42212 6.66401 8.47271 6.62876C8.55604 6.56654 8.65714 6.49765 8.78713 6.41098C9.10711 6.19653 9.41264 5.91097 9.60707 5.52764C9.81039 5.12985 9.8615 4.68874 9.77151 4.23318C9.67861 3.78571 9.45696 3.37515 9.13384 3.05199C8.81071 2.72883 8.40018 2.50717 7.95275 2.41427C6.53507 2.13204 5.18628 3.23983 5.18628 4.68429C5.18628 4.90531 5.27407 5.11727 5.43034 5.27356C5.58661 5.42984 5.79856 5.51764 6.01955 5.51764C6.24055 5.51764 6.4525 5.42984 6.60877 5.27356C6.76504 5.11727 6.85283 4.90531 6.85283 4.68429C6.85543 4.58923 6.87844 4.49584 6.92031 4.41045C6.96217 4.32506 7.0219 4.24967 7.09545 4.1894C7.16899 4.12912 7.25464 4.08536 7.34659 4.06109Z" fill="#969696"/>
<path d="M8.08977 8.33286C8.24604 8.48914 8.33383 8.70111 8.33383 8.92212V9.19435C8.33383 9.41536 8.24604 9.62733 8.08977 9.78361C7.9335 9.93989 7.72156 10.0277 7.50056 10.0277C7.27956 10.0277 7.06761 9.93989 6.91134 9.78361C6.75508 9.62733 6.66728 9.41536 6.66728 9.19435V8.92212C6.66728 8.70111 6.75508 8.48914 6.91134 8.33286C7.06761 8.17658 7.27956 8.08878 7.50056 8.08878C7.72156 8.08878 7.9335 8.17658 8.08977 8.33286Z" fill="#969696"/>
</svg>
