<svg width="13" height="19" viewBox="0 0 13 19" fill="none" xmlns="http://www.w3.org/2000/svg">
<path d="M0 3.46133C0 2.24986 -6.45717e-08 1.64413 0.236167 1.18118C0.443889 0.774139 0.775334 0.443205 1.183 0.235803C1.64667 -6.44722e-08 2.25333 0 3.46667 0H9.53333C10.7467 0 11.3533 -6.44722e-08 11.817 0.235803C12.2247 0.443205 12.5561 0.774139 12.7638 1.18118C13 1.64413 13 2.24986 13 3.46133V17.8529C13 18.3786 13 18.6414 12.8906 18.7853C12.8433 18.8478 12.783 18.8994 12.7138 18.9364C12.6445 18.9734 12.5681 18.9949 12.4897 18.9994C12.3088 19.0103 12.09 18.8642 11.6523 18.5733L6.5 15.1433L1.34767 18.5722C0.91 18.8642 0.691166 19.0103 0.509166 18.9994C0.430989 18.9947 0.354766 18.9731 0.285754 18.9362C0.216741 18.8992 0.156579 18.8477 0.109416 18.7853C-1.85644e-07 18.6414 0 18.3786 0 17.8529V3.46133Z" fill="#E3CC48"/>
</svg>
