<svg width="22" height="23" viewBox="0 0 22 23" fill="none" xmlns="http://www.w3.org/2000/svg">
<path d="M8.13656 17.0128C5.86249 17.0128 3.93809 16.1892 2.36336 14.542C0.788621 12.8948 0.000835181 10.883 6.62316e-07 8.5064C-0.000833856 6.12984 0.786952 4.11797 2.36336 2.47078C3.93976 0.823594 5.86416 0 8.13656 0C10.409 0 12.3338 0.823594 13.911 2.47078C15.4883 4.11797 16.2756 6.12984 16.2731 8.5064C16.2731 9.4661 16.1271 10.3713 15.835 11.2219C15.5429 12.0725 15.1465 12.825 14.6458 13.4794L21.6558 20.808C21.8853 21.0479 22 21.3532 22 21.724C22 22.0948 21.8853 22.4002 21.6558 22.6401C21.4263 22.88 21.1342 23 20.7795 23C20.4248 23 20.1328 22.88 19.9033 22.6401L12.8933 15.3115C12.2674 15.835 11.5477 16.2494 10.734 16.5548C9.92034 16.8601 9.05453 17.0128 8.13656 17.0128ZM8.13656 14.3954C9.70128 14.3954 11.0315 13.8231 12.1272 12.6785C13.2229 11.5338 13.7704 10.1431 13.7696 8.5064C13.7687 6.86968 13.2213 5.47943 12.1272 4.33565C11.0332 3.19186 9.70295 2.6191 8.13656 2.61735C6.57017 2.61561 5.24036 3.18837 4.14714 4.33565C3.05392 5.48292 2.50606 6.87317 2.50356 8.5064C2.50105 10.1396 3.04891 11.5303 4.14714 12.6785C5.24537 13.8266 6.57517 14.3989 8.13656 14.3954Z" fill="#E5E5E5"/>
</svg>
