<svg width="15" height="15" viewBox="0 0 15 15" fill="none" xmlns="http://www.w3.org/2000/svg">
<path d="M2.65183 7.49924L0.0406617 0.786454C0.000684855 0.683969 -0.00915301 0.572191 0.012308 0.464299C0.0337691 0.356407 0.085634 0.256902 0.161787 0.177516C0.23794 0.0981309 0.335206 0.0421757 0.442114 0.0162494C0.549022 -0.00967697 0.661115 -0.00449346 0.765174 0.0311887L0.836702 0.061184L14.6809 6.98316C14.7702 7.02775 14.8464 7.09473 14.902 7.17757C14.9576 7.2604 14.9908 7.35626 14.9984 7.45577C15.0059 7.55527 14.9875 7.65503 14.9449 7.74528C14.9023 7.83554 14.8371 7.91321 14.7555 7.9707L14.6809 8.01531L0.836702 14.9373C0.388305 15.1611 -0.0993184 14.7489 0.0175881 14.2851L0.0406617 14.212L2.65183 7.49924ZM1.65812 1.76168L3.66553 6.9224H8.7625C8.90189 6.92241 9.03657 6.97289 9.14162 7.06451C9.24668 7.15613 9.315 7.28269 9.33396 7.42079L9.33934 7.49924C9.33931 7.63874 9.28872 7.77351 9.19694 7.87858C9.10516 7.98365 8.97842 8.0519 8.84018 8.07068L8.7625 8.07607H3.66399L1.65735 13.2368L13.1334 7.49924L1.65812 1.76168Z" fill="white"/>
</svg>
