<svg width="19" height="15" viewBox="0 0 19 15" fill="none" xmlns="http://www.w3.org/2000/svg">
<path d="M9.50016 6.25C8.66031 6.25 7.85486 5.92076 7.26099 5.33471C6.66713 4.74866 6.3335 3.9538 6.3335 3.125C6.3335 2.2962 6.66713 1.50134 7.26099 0.915291C7.85486 0.32924 8.66031 0 9.50016 0C10.34 0 11.1455 0.32924 11.7393 0.915291C12.3332 1.50134 12.6668 2.2962 12.6668 3.125C12.6668 3.9538 12.3332 4.74866 11.7393 5.33471C11.1455 5.92076 10.34 6.25 9.50016 6.25ZM9.50016 1.25C8.44883 1.25 7.60016 2.0875 7.60016 3.125C7.60016 4.1625 8.44883 5 9.50016 5C10.5515 5 11.4002 4.1625 11.4002 3.125C11.4002 2.0875 10.5515 1.25 9.50016 1.25Z" fill="#E5E5E5"/>
<path d="M17.1 11.25C16.7453 11.25 16.4667 10.975 16.4667 10.625C16.4667 10.275 16.7453 10 17.1 10C17.4547 10 17.7333 9.725 17.7333 9.375C17.7333 8.5462 17.3997 7.75134 16.8058 7.16529C16.212 6.57924 15.4065 6.25 14.5667 6.25H13.3C12.9453 6.25 12.6667 5.975 12.6667 5.625C12.6667 5.275 12.9453 5 13.3 5C14.3513 5 15.2 4.1625 15.2 3.125C15.2 2.0875 14.3513 1.25 13.3 1.25C12.9453 1.25 12.6667 0.975 12.6667 0.625C12.6667 0.275 12.9453 0 13.3 0C14.1399 0 14.9453 0.32924 15.5392 0.915291C16.133 1.50134 16.4667 2.2962 16.4667 3.125C16.4667 3.9 16.188 4.6 15.7067 5.15C17.594 5.65 19 7.35 19 9.375C19 10.4125 18.1513 11.25 17.1 11.25ZM1.9 11.25C0.848667 11.25 0 10.4125 0 9.375C0 7.35 1.39333 5.65 3.29333 5.15C2.82467 4.6 2.53333 3.9 2.53333 3.125C2.53333 2.2962 2.86696 1.50134 3.46083 0.915291C4.05469 0.32924 4.86015 0 5.7 0C6.05467 0 6.33333 0.275 6.33333 0.625C6.33333 0.975 6.05467 1.25 5.7 1.25C4.64867 1.25 3.8 2.0875 3.8 3.125C3.8 4.1625 4.64867 5 5.7 5C6.05467 5 6.33333 5.275 6.33333 5.625C6.33333 5.975 6.05467 6.25 5.7 6.25H4.43333C3.59348 6.25 2.78803 6.57924 2.19416 7.16529C1.6003 7.75134 1.26667 8.5462 1.26667 9.375C1.26667 9.725 1.54533 10 1.9 10C2.25467 10 2.53333 10.275 2.53333 10.625C2.53333 10.975 2.25467 11.25 1.9 11.25ZM13.3 15H5.7C4.64867 15 3.8 14.1625 3.8 13.125V11.875C3.8 9.4625 5.78867 7.5 8.23333 7.5H10.7667C13.2113 7.5 15.2 9.4625 15.2 11.875V13.125C15.2 14.1625 14.3513 15 13.3 15ZM8.23333 8.75C7.39348 8.75 6.58803 9.07924 5.99416 9.66529C5.4003 10.2513 5.06667 11.0462 5.06667 11.875V13.125C5.06667 13.475 5.34533 13.75 5.7 13.75H13.3C13.6547 13.75 13.9333 13.475 13.9333 13.125V11.875C13.9333 11.0462 13.5997 10.2513 13.0058 9.66529C12.412 9.07924 11.6065 8.75 10.7667 8.75H8.23333Z" fill="#E5E5E5"/>
</svg>
