<svg width="19" height="18" viewBox="0 0 19 18" fill="none" xmlns="http://www.w3.org/2000/svg">
<path d="M5.9375 1.32L19 0V13.2C19 14.1548 18.6247 15.0705 17.9566 15.7456C17.2885 16.4207 16.3823 16.8 15.4375 16.8C14.4927 16.8 13.5865 16.4207 12.9184 15.7456C12.2503 15.0705 11.875 14.1548 11.875 13.2C11.875 12.2452 12.2503 11.3295 12.9184 10.6544C13.5865 9.97928 14.4927 9.6 15.4375 9.6C16.3519 9.6 17.1831 9.948 17.8125 10.512V4.848L7.125 6.048V14.4C7.125 15.3548 6.74967 16.2705 6.08157 16.9456C5.41347 17.6207 4.50733 18 3.5625 18C2.61767 18 1.71153 17.6207 1.04343 16.9456C0.375334 16.2705 0 15.3548 0 14.4C0 13.4452 0.375334 12.5295 1.04343 11.8544C1.71153 11.1793 2.61767 10.8 3.5625 10.8C4.47687 10.8 5.30813 11.148 5.9375 11.712V1.32ZM7.125 2.4V4.836L17.8125 3.648V1.308L7.125 2.4ZM5.9375 14.4C5.9375 13.7635 5.68728 13.153 5.24188 12.7029C4.79648 12.2529 4.19239 12 3.5625 12C2.93261 12 2.32852 12.2529 1.88312 12.7029C1.43772 13.153 1.1875 13.7635 1.1875 14.4C1.1875 15.0365 1.43772 15.647 1.88312 16.0971C2.32852 16.5471 2.93261 16.8 3.5625 16.8C4.19239 16.8 4.79648 16.5471 5.24188 16.0971C5.68728 15.647 5.9375 15.0365 5.9375 14.4ZM17.8125 13.2C17.8125 12.5635 17.5623 11.953 17.1169 11.5029C16.6715 11.0529 16.0674 10.8 15.4375 10.8C14.8076 10.8 14.2035 11.0529 13.7581 11.5029C13.3127 11.953 13.0625 12.5635 13.0625 13.2C13.0625 13.8365 13.3127 14.447 13.7581 14.8971C14.2035 15.3471 14.8076 15.6 15.4375 15.6C16.0674 15.6 16.6715 15.3471 17.1169 14.8971C17.5623 14.447 17.8125 13.8365 17.8125 13.2Z" fill="#E5E5E5"/>
</svg>
