<svg width="19" height="20" viewBox="0 0 19 20" fill="none" xmlns="http://www.w3.org/2000/svg">
<path fill-rule="evenodd" clip-rule="evenodd" d="M9.0476 6.51172C8.12469 6.51172 7.23957 6.87924 6.58697 7.53344C5.93438 8.18764 5.56775 9.07492 5.56775 10.0001C5.56775 10.9253 5.93438 11.8125 6.58697 12.4667C7.23957 13.1209 8.12469 13.4885 9.0476 13.4885C9.97052 13.4885 10.8556 13.1209 11.5082 12.4667C12.1608 11.8125 12.5275 10.9253 12.5275 10.0001C12.5275 9.07492 12.1608 8.18764 11.5082 7.53344C10.8556 6.87924 9.97052 6.51172 9.0476 6.51172ZM6.95969 10.0001C6.95969 9.44499 7.17967 8.91262 7.57123 8.5201C7.96279 8.12758 8.49385 7.90707 9.0476 7.90707C9.60135 7.90707 10.1324 8.12758 10.524 8.5201C10.9155 8.91262 11.1355 9.44499 11.1355 10.0001C11.1355 10.5552 10.9155 11.0876 10.524 11.4801C10.1324 11.8726 9.60135 12.0931 9.0476 12.0931C8.49385 12.0931 7.96279 11.8726 7.57123 11.4801C7.17967 11.0876 6.95969 10.5552 6.95969 10.0001Z" fill="#E5E5E5"/>
<path fill-rule="evenodd" clip-rule="evenodd" d="M9.04762 0C8.39341 0 7.79673 0.180465 7.14437 0.483721C6.51336 0.778605 5.7812 1.21209 4.86716 1.75535L4.16747 2.17023C3.2525 2.71349 2.5222 3.14698 1.95893 3.56186C1.37617 3.99163 0.928889 4.4307 0.605959 5.00651C0.283028 5.58233 0.137338 6.19628 0.0677411 6.92558C-4.14831e-08 7.63256 0 8.4986 0 9.58698V10.413C0 11.5014 -4.14831e-08 12.3665 0.0677411 13.0735C0.137338 13.8037 0.283028 14.4186 0.605959 14.9935C0.929817 15.5693 1.37617 16.0084 1.95893 16.4381C2.5222 16.853 3.2525 17.2865 4.16747 17.8298L4.86716 18.2447C5.7812 18.7879 6.51243 19.2214 7.14437 19.5163C7.79673 19.8195 8.39341 20 9.04762 20C9.70183 20 10.2985 19.8195 10.9509 19.5163C11.5819 19.2214 12.314 18.7879 13.2281 18.2447L13.9278 17.8298C14.8427 17.2865 15.573 16.853 16.1363 16.4381C16.7191 16.0084 17.1663 15.5693 17.4893 14.9935C17.8122 14.4177 17.9579 13.8037 18.0275 13.0744C18.0952 12.3674 18.0952 11.5014 18.0952 10.414V9.58698C18.0952 8.4986 18.0952 7.63349 18.0275 6.92651C17.9579 6.19628 17.8122 5.5814 17.4893 5.00651C17.1654 4.4307 16.7191 3.99163 16.1363 3.56186C15.573 3.14698 14.8427 2.71349 13.9278 2.17023L13.2281 1.75535C12.314 1.21209 11.5828 0.778605 10.9509 0.483721C10.2985 0.180465 9.70183 0 9.04762 0ZM5.54457 2.97395C6.49758 2.40837 7.16943 2.01116 7.73084 1.74977C8.27834 1.49488 8.66808 1.39535 9.04762 1.39535C9.42716 1.39535 9.81783 1.49488 10.3653 1.74884C10.9258 2.01116 11.5977 2.4093 12.5507 2.97395L13.1873 3.35256C14.1403 3.91814 14.8112 4.31721 15.3123 4.68651C15.8004 5.04651 16.0825 5.34698 16.2755 5.69116C16.4704 6.03628 16.5817 6.44093 16.6421 7.05861C16.7024 7.69116 16.7033 8.49116 16.7033 9.62233V10.3777C16.7033 11.5088 16.7033 12.3079 16.6421 12.9405C16.5827 13.5591 16.4704 13.9637 16.2755 14.3088C16.0825 14.653 15.8004 14.9535 15.3123 15.3135C14.8112 15.6828 14.1403 16.0819 13.1873 16.6474L12.5507 17.026C11.5977 17.5916 10.9258 17.9888 10.3644 18.2502C9.8169 18.5051 9.42716 18.6047 9.04762 18.6047C8.66808 18.6047 8.27741 18.5051 7.72991 18.2512C7.16943 17.9888 6.49758 17.5907 5.54457 17.026L4.90799 16.6474C3.95497 16.0819 3.28405 15.6828 2.78295 15.3135C2.29485 14.9535 2.01275 14.653 1.81973 14.3088C1.62486 13.9637 1.51258 13.5591 1.45319 12.9414C1.39287 12.3088 1.39194 11.5088 1.39194 10.3777V9.62233C1.39194 8.49116 1.39194 7.69209 1.45319 7.05954C1.51258 6.44093 1.62486 6.03628 1.8188 5.69116C2.01275 5.34698 2.29485 5.04651 2.78388 4.68651C3.28498 4.31721 3.95497 3.91814 4.90891 3.35256L5.54457 2.97395Z" fill="#E5E5E5"/>
</svg>
