<svg width="19" height="19" viewBox="0 0 19 19" fill="none" xmlns="http://www.w3.org/2000/svg">
<path d="M2.85007 15.3797V18.9997L4.28935 18.126L8.81336 15.3797H13.3003C14.3482 15.3797 15.2004 14.5175 15.2004 13.4572V5.76722C15.2004 4.70696 14.3482 3.84473 13.3003 3.84473H1.90005C0.852171 3.84473 0 4.70696 0 5.76722V13.4572C0 14.5175 0.852171 15.3797 1.90005 15.3797H2.85007ZM1.90005 5.76722H13.3003V13.4572H8.28705L4.75011 15.6046V13.4572H1.90005V5.76722Z" fill="#E5E5E5"/>
<path d="M17.1006 0H5.70034C4.65246 0 3.80029 0.862238 3.80029 1.92249H15.2006C16.2484 1.92249 17.1006 2.78473 17.1006 3.84499V11.535C18.1485 11.535 19.0007 10.6727 19.0007 9.61247V1.92249C19.0007 0.862238 18.1485 0 17.1006 0Z" fill="#E5E5E5"/>
</svg>
