<svg width="19" height="17" viewBox="0 0 19 17" fill="none" xmlns="http://www.w3.org/2000/svg">
<path fill-rule="evenodd" clip-rule="evenodd" d="M17.1 9.46976e-08C17.5793 -0.000150714 18.041 0.179828 18.3925 0.503858C18.744 0.827888 18.9593 1.27202 18.9953 1.74722L19 1.88889V15.1111C19.0002 15.5877 18.8191 16.0466 18.4932 16.3961C18.1672 16.7455 17.7205 16.9595 17.2425 16.9953L17.1 17H1.9C1.42065 17.0002 0.958962 16.8202 0.60748 16.4961C0.255997 16.1721 0.0407012 15.728 0.0047502 15.2528L9.52546e-08 15.1111V1.88889C-0.0001516 1.41234 0.180886 0.953354 0.506822 0.603927C0.832758 0.2545 1.2795 0.0404632 1.7575 0.00472242L1.9 9.46976e-08H17.1ZM17.1 1.88889H1.9V15.1111H17.1V1.88889ZM7.923 4.38033L8.4151 4.59756L8.7362 4.74867L9.10385 4.92811L9.51235 5.134L9.95885 5.37011L10.4405 5.63455L10.6932 5.77811L11.1853 6.06617L11.6356 6.34194L12.0441 6.59978L12.4051 6.83872L12.8611 7.15039L13.2069 7.39878L13.2971 7.46489C13.4438 7.57334 13.5628 7.71437 13.6449 7.87671C13.7269 8.03905 13.7696 8.21821 13.7696 8.39989C13.7696 8.58156 13.7269 8.76073 13.6449 8.92307C13.5628 9.08541 13.4438 9.22643 13.2971 9.33489L12.9903 9.55683L12.5723 9.84772L12.2341 10.0734L11.8493 10.3218L11.419 10.5891L10.945 10.8724L10.4377 11.1643L9.9541 11.4306L9.50665 11.6667L9.09815 11.8745L8.73145 12.0521L8.14055 12.3241L7.92205 12.4185C7.7543 12.4904 7.57198 12.5223 7.38964 12.5117C7.20729 12.501 7.02996 12.4482 6.87179 12.3574C6.71361 12.2666 6.57898 12.1403 6.47862 11.9885C6.37826 11.8368 6.31496 11.6639 6.29375 11.4835L6.23865 10.9499L6.20825 10.5967L6.16835 9.96955L6.1465 9.48978L6.13225 8.96561L6.12845 8.68794L6.12655 8.39989C6.12655 8.2047 6.12845 8.01581 6.13225 7.83322L6.1465 7.30906L6.16835 6.83022L6.194 6.39861L6.2225 6.01989L6.29375 5.31722C6.31483 5.13666 6.37807 4.9635 6.47842 4.81155C6.57877 4.6596 6.71346 4.53307 6.87173 4.44205C7.03 4.35104 7.20748 4.29806 7.39001 4.28735C7.57253 4.27663 7.75505 4.30847 7.923 4.38033ZM8.50345 6.74239L8.08925 6.5365L8.0617 6.99644L8.0408 7.51683L8.02845 8.09294L8.02655 8.39989L8.02845 8.70683L8.0408 9.282L8.0503 9.54928L8.075 10.0404L8.08925 10.2623L8.50155 10.0564L8.9642 9.81467L9.47245 9.537L9.74225 9.384L10.2657 9.07611L10.735 8.78711L11.1492 8.52267L11.3354 8.39989L10.9487 8.14489L10.5061 7.86722C10.2542 7.71218 9.99984 7.56105 9.7432 7.41389L9.47435 7.26183L8.96705 6.98417L8.50345 6.74239Z" fill="#E5E5E5"/>
</svg>
