<svg width="19" height="19" viewBox="0 0 19 19" fill="none" xmlns="http://www.w3.org/2000/svg">
<path d="M6.9005 19L6.52239 15.96C6.31758 15.8808 6.12474 15.7858 5.94388 15.675C5.76302 15.5642 5.58562 15.4454 5.41169 15.3187L2.5995 16.5063L0 11.9937L2.43408 10.1412C2.41833 10.0304 2.41045 9.9237 2.41045 9.8211V9.17985C2.41045 9.07662 2.41833 8.96958 2.43408 8.85875L0 7.00625L2.5995 2.49375L5.41169 3.68125C5.58499 3.55458 5.76617 3.43583 5.95522 3.325C6.14428 3.21417 6.33333 3.11917 6.52239 3.04L6.9005 0H12.0995L12.4776 3.04C12.6824 3.11917 12.8756 3.21417 13.0571 3.325C13.2386 3.43583 13.4156 3.55458 13.5883 3.68125L16.4005 2.49375L19 7.00625L16.5659 8.85875C16.5817 8.96958 16.5896 9.07662 16.5896 9.17985V9.82015C16.5896 9.92338 16.5738 10.0304 16.5423 10.1412L18.9764 11.9937L16.3769 16.5063L13.5883 15.3187C13.415 15.4454 13.2338 15.5642 13.0448 15.675C12.8557 15.7858 12.6667 15.8808 12.4776 15.96L12.0995 19H6.9005ZM9.54727 12.825C10.461 12.825 11.2409 12.5004 11.8868 11.8513C12.5328 11.2021 12.8557 10.4183 12.8557 9.5C12.8557 8.58167 12.5328 7.79792 11.8868 7.14875C11.2409 6.49958 10.461 6.175 9.54727 6.175C8.61775 6.175 7.8338 6.49958 7.19542 7.14875C6.55705 7.79792 6.23818 8.58167 6.23881 9.5C6.23944 10.4183 6.55862 11.2021 7.19637 11.8513C7.83411 12.5004 8.61775 12.825 9.54727 12.825Z" fill="#E5E5E5"/>
</svg>
